<?xml version="1.0" encoding="UTF-8" standalone="no"?>
<!-- Created with Inkscape (http://www.inkscape.org/) -->

<svg
   version="1.1"
   id="svg9"
   width="288"
   height="288"
   viewBox="0 0 288 288"
   sodipodi:docname="svg logo white.svg"
   inkscape:version="1.2.2 (732a01da63, 2022-12-09)"
   xmlns:inkscape="http://www.inkscape.org/namespaces/inkscape"
   xmlns:sodipodi="http://sodipodi.sourceforge.net/DTD/sodipodi-0.dtd"
   xmlns="http://www.w3.org/2000/svg"
   xmlns:svg="http://www.w3.org/2000/svg">
  <defs
     id="defs13" />
  <sodipodi:namedview
     id="namedview11"
     pagecolor="#ffffff"
     bordercolor="#000000"
     borderopacity="0.25"
     inkscape:showpageshadow="2"
     inkscape:pageopacity="0.0"
     inkscape:pagecheckerboard="0"
     inkscape:deskcolor="#d1d1d1"
     showgrid="false"
     inkscape:zoom="1.7777778"
     inkscape:cx="88.03125"
     inkscape:cy="144"
     inkscape:window-width="1366"
     inkscape:window-height="715"
     inkscape:window-x="-8"
     inkscape:window-y="-8"
     inkscape:window-maximized="1"
     inkscape:current-layer="g15" />
  <g
     inkscape:groupmode="layer"
     inkscape:label="Image"
     id="g15">
    <path
       style="fill:#ffffff;stroke-width:0.048;fill-opacity:1"
       d="m 247.488,210.40838 c -2.3515,-0.2588 -4.34819,-1.06454 -5.94649,-2.39963 -1.07766,-0.90018 -2.31889,-2.44399 -2.5828,-3.21242 -0.11557,-0.33648 -0.11329,-1.02067 0.005,-1.37233 0.32081,-0.95731 0.9574,-1.50203 1.99663,-1.70848 0.34269,-0.0681 0.46446,-0.0722 0.76176,-0.026 0.67442,0.10485 1.10719,0.42585 1.69822,1.25964 1.18887,1.67719 2.84746,2.56929 5.06977,2.72687 1.24147,0.088 2.21256,-0.0934 3.24429,-0.60629 1.30229,-0.64732 2.57504,-1.90363 3.21308,-3.17157 0.3537,-0.70286 0.62462,-1.74594 0.59545,-2.29248 l -0.0145,-0.27101 -0.3089,0.39267 c -0.78133,0.99321 -1.95968,1.8426 -3.14901,2.26992 -0.8013,0.2879 -1.94876,0.46689 -2.99117,0.46659 -3.05241,-9.2e-4 -5.716,-1.1087 -7.90522,-3.28784 -2.37205,-2.36111 -3.469,-5.26063 -3.28201,-8.6752 0.13071,-2.38717 0.92876,-4.46475 2.42026,-6.3008 0.45726,-0.56289 1.46567,-1.54651 2.03283,-1.98283 1.4758,-1.13539 3.14232,-1.84122 5.02322,-2.12752 0.79975,-0.12173 2.3975,-0.14567 3.168,-0.0474 2.65716,0.33868 4.8924,1.49113 6.80781,3.50995 1.39893,1.47446 2.37973,3.30946 2.76357,5.17042 0.23464,1.13762 0.24462,1.401 0.24462,6.45205 0,2.93402 -0.019,4.92429 -0.05,5.23229 -0.25154,2.4999 -1.41587,4.79946 -3.41229,6.73932 -1.98448,1.92825 -4.17417,3.01129 -6.6417,3.28505 -0.58088,0.0645 -2.0793,0.052 -2.76,-0.0229 z m 3.072,-12.88092 c 1.34412,-0.31428 2.47593,-0.99252 3.40145,-2.03831 1.06755,-1.20628 1.59022,-2.59287 1.59566,-4.23315 0.006,-1.81405 -0.57488,-3.26047 -1.81886,-4.52885 -0.98278,-1.00206 -2.02589,-1.57872 -3.37025,-1.86316 -0.56064,-0.11862 -1.91449,-0.11938 -2.50475,-0.001 -1.54356,0.30851 -2.85082,1.11727 -3.85909,2.38752 -1.13468,1.42947 -1.57797,3.28398 -1.24349,5.20204 0.20973,1.20267 0.78997,2.31586 1.69825,3.25804 0.99855,1.03584 2.11103,1.62548 3.55708,1.88535 0.53567,0.0963 2.00987,0.0568 2.544,-0.0681 z m -76.2,4.88602 c -2.55516,-0.25854 -4.83042,-1.35432 -6.72231,-3.23748 -2.37204,-2.36111 -3.46899,-5.26063 -3.28201,-8.6752 0.13072,-2.38717 0.92876,-4.46475 2.42026,-6.3008 0.45726,-0.56289 1.46568,-1.54651 2.03283,-1.98283 1.47474,-1.13457 3.13556,-1.83833 5.02323,-2.12855 0.86907,-0.13362 2.58983,-0.14492 3.57201,-0.0235 1.79198,0.22161 3.23435,0.75346 4.33234,1.59748 0.1498,0.11515 0.28433,0.20936 0.29896,0.20936 0.0146,0 0.0325,-1.84254 0.0396,-4.09453 l 0.013,-4.09453 0.18803,-0.38147 c 0.84561,-1.7156 3.24897,-1.80534 4.23818,-0.15824 0.32515,0.54139 0.30574,-0.13863 0.28903,10.12653 -0.014,8.57018 -0.0215,9.31906 -0.0988,9.76224 -0.33351,1.9129 -0.96481,3.40308 -2.06213,4.86769 -0.44241,0.59049 -1.45873,1.63445 -2.0743,2.1307 -1.56251,1.25964 -3.31681,2.03227 -5.25649,2.31506 -0.64554,0.0941 -2.31374,0.13257 -2.95151,0.068 z m 1.72429,-4.70241 c 1.67029,-0.13837 2.97385,-0.76609 4.16237,-2.00435 1.20728,-1.25782 1.77146,-2.66739 1.7718,-4.42672 4.8e-4,-1.84717 -0.59394,-3.28454 -1.89614,-4.58603 -1.23087,-1.23019 -2.55416,-1.81165 -4.27432,-1.87816 -1.21177,-0.0469 -2.25338,0.17322 -3.2458,0.68579 -1.31189,0.67756 -2.45302,1.91433 -2.99664,3.24781 -0.72047,1.76724 -0.64226,3.82488 0.20824,5.47849 0.59813,1.16294 1.70512,2.26224 2.86946,2.84951 0.66572,0.33578 1.51269,0.56481 2.33975,0.63271 0.24255,0.0199 0.45179,0.0389 0.46499,0.0423 0.0132,0.003 0.28153,-0.0152 0.59629,-0.0413 z m 23.09171,4.70259 c -2.55766,-0.25986 -4.83043,-1.3545 -6.72231,-3.23766 -2.37204,-2.36111 -3.46899,-5.26063 -3.28201,-8.6752 0.13072,-2.38717 0.92876,-4.46475 2.42026,-6.3008 0.45726,-0.56289 1.46568,-1.54651 2.03283,-1.98283 1.47565,-1.13527 3.14134,-1.8408 5.02323,-2.12767 0.801,-0.12211 2.40763,-0.14593 3.144,-0.0466 1.47699,0.19918 2.80027,0.63158 3.9986,1.30658 1.86889,1.05271 3.32539,2.47853 4.33822,4.24678 0.61099,1.06671 0.76243,1.57089 0.67928,2.26156 -0.0717,0.5955 -0.47317,1.25306 -0.975,1.59691 -0.10621,0.0728 -1.6187,0.77445 -3.3611,1.55929 -6.23487,2.80843 -10.68,4.83644 -10.68,4.87255 0,0.0692 0.74381,0.74551 1.02276,0.92994 0.90808,0.60041 2.09403,0.90332 3.53724,0.90346 1.40115,0 2.55822,-0.35239 3.69058,-1.12443 0.47461,-0.32359 1.41233,-1.26068 1.70198,-1.70083 0.25403,-0.38602 0.61214,-1.09008 0.70329,-1.38268 0.0904,-0.29016 0.37122,-0.80762 0.55459,-1.02184 0.73798,-0.86216 2.37174,-0.95048 3.27418,-0.17699 0.261,0.2237 0.59698,0.69387 0.73733,1.03183 0.0898,0.21622 0.10934,0.35264 0.10984,0.767 7.2e-4,0.57336 -0.0725,0.82992 -0.52216,1.83013 -0.6932,1.54194 -1.84994,3.02156 -3.14563,4.0237 -1.71111,1.32343 -3.42274,2.084 -5.352,2.37817 -0.62136,0.0948 -2.29032,0.13445 -2.928,0.0697 z m 0.2284,-13.46871 c 5.28667,-2.3739 5.4124,-2.43343 5.34808,-2.532 -0.10519,-0.16121 -0.70006,-0.64503 -1.04762,-0.85203 -0.39618,-0.23597 -1.08945,-0.48688 -1.70699,-0.61779 -0.68536,-0.1453 -1.88704,-0.17997 -2.59805,-0.075 -2.53325,0.37414 -4.63452,2.27029 -5.26346,4.74968 -0.16209,0.63897 -0.27739,1.75815 -0.18113,1.75815 0.0194,0 2.4715,-1.09397 5.44917,-2.43105 z m 15.25662,13.44309 c -0.39966,-0.10748 -0.71889,-0.30102 -1.07339,-0.6508 -0.39561,-0.39033 -0.5869,-0.7677 -0.66158,-1.30512 -0.16012,-1.15216 0.45665,-2.18322 1.57465,-2.63234 0.27522,-0.11057 0.2762,-0.1106 3.4193,-0.13521 l 3.144,-0.0246 0.288,-0.11543 c 0.21394,-0.0857 0.37558,-0.203 0.62856,-0.45597 0.45643,-0.45644 0.56739,-0.72842 0.56975,-1.39656 0.002,-0.43047 -0.0122,-0.50824 -0.13273,-0.75372 -0.1508,-0.3071 -0.50976,-0.65823 -0.84742,-0.82892 -0.25231,-0.12755 -0.66388,-0.25627 -2.54041,-0.79453 -0.74924,-0.21491 -1.55599,-0.46468 -1.79279,-0.55504 -2.39505,-0.91399 -3.56182,-2.21303 -4.00567,-4.45979 -0.12242,-0.61968 -0.12268,-2.28204 -4.8e-4,-2.84999 0.30494,-1.41692 0.97158,-2.59907 2.03121,-3.6019 0.9766,-0.92425 2.10119,-1.51005 3.37796,-1.75959 0.53764,-0.10509 4.74244,-0.15919 5.28317,-0.068 0.85665,0.14449 1.61731,0.80509 1.87055,1.62451 0.1299,0.42033 0.12834,1.08655 -0.004,1.51353 -0.18342,0.59381 -0.78999,1.22291 -1.42263,1.47545 -0.27622,0.11027 -0.30848,0.11191 -2.70356,0.13739 -2.63988,0.0281 -2.54973,0.0187 -3.024,0.3147 -0.26265,0.16393 -0.6181,0.57407 -0.75862,0.87533 -0.11522,0.24703 -0.12812,0.32988 -0.12872,0.82655 -5.7e-4,0.50037 0.0115,0.5779 0.12912,0.82896 0.15832,0.33785 0.50214,0.68223 0.88212,0.88356 0.33217,0.17599 1.11315,0.42573 2.60176,0.83196 1.36092,0.3714 1.90934,0.56179 2.62634,0.91181 0.71597,0.34952 1.10183,0.60343 1.52812,1.00558 0.82677,0.77993 1.32019,1.73735 1.5472,3.00213 0.11981,0.6675 0.1222,2.08639 0.005,2.688 -0.26865,1.37361 -0.90182,2.56621 -1.88373,3.54813 -1.10427,1.10427 -2.43452,1.75876 -3.95487,1.94583 -0.24488,0.0301 -1.582,0.0488 -3.36,0.0469 -2.42222,-0.003 -2.99983,-0.0157 -3.21224,-0.0728 z m 17.17898,0.0234 c -0.62339,-0.12121 -1.31622,-0.68624 -1.61897,-1.32033 L 230.04,200.712 l -0.0142,-9.36 c -0.0158,-10.46216 -0.0407,-9.67673 0.32448,-10.23739 0.55011,-0.84449 1.43959,-1.25932 2.40696,-1.12252 0.78432,0.11092 1.43713,0.59487 1.80416,1.3375 l 0.18258,0.36941 0.0128,9.4105 c 0.0127,9.30549 0.0117,9.41405 -0.0836,9.72871 -0.22259,0.73457 -0.96268,1.41106 -1.71954,1.57178 -0.29202,0.062 -0.79893,0.0627 -1.11364,0.001 z m 33.17302,-0.0205 c -0.74765,-0.20961 -1.38639,-0.815 -1.63334,-1.54808 -0.0988,-0.29322 -0.0997,-0.34965 -0.0997,-6.24695 0,-6.2656 0.006,-6.4578 0.21999,-7.38167 0.21748,-0.93775 0.68384,-2.04106 1.19738,-2.83274 0.78544,-1.21084 2.00627,-2.39916 3.21463,-3.129 1.91219,-1.15495 4.37391,-1.55911 6.72864,-1.10469 3.51976,0.67924 6.5884,3.71283 7.30356,7.22013 0.19179,0.94055 0.19982,1.23295 0.19923,7.25811 -6.3e-4,6.35084 0.0106,6.07699 -0.26982,6.594 -0.17374,0.32036 -0.64668,0.79626 -0.96028,0.96631 -0.67955,0.36849 -1.60281,0.36875 -2.29373,6.2e-4 -0.32148,-0.17127 -0.8475,-0.69515 -0.99943,-0.99535 -0.25992,-0.5136 -0.24653,-0.18961 -0.27475,-6.64771 l -0.0263,-6.024 -0.13444,-0.432 c -0.44882,-1.44216 -1.56411,-2.61234 -2.93573,-3.08017 -1.47288,-0.50238 -3.15367,-0.2397 -4.34155,0.67851 -0.83263,0.64361 -1.42783,1.51951 -1.69725,2.49766 -0.16384,0.59483 -0.17733,1.10738 -0.17773,6.75095 -4.8e-4,5.49741 -0.002,5.60468 -0.0982,5.91563 -0.18428,0.59662 -0.79888,1.23207 -1.42263,1.4709 -0.36578,0.14006 -1.12185,0.17513 -1.49854,0.0695 z M 137.088,197.48974 c -5.77404,-0.27687 -10.62763,-1.43531 -15.048,-3.59162 -5.30593,-2.5883 -9.57966,-6.39995 -13.12014,-11.7016 -0.84757,-1.26918 -1.19945,-1.99402 -1.42608,-2.93762 -0.31063,-1.29328 -0.23764,-2.59715 0.22308,-3.98498 0.78022,-2.35024 2.24755,-3.84373 4.60136,-4.68339 2.96856,-1.05894 5.4359,-0.64669 7.39735,1.23595 0.57868,0.55543 0.84849,0.884 1.5089,1.83752 2.16217,3.1218 4.45237,5.16386 7.50717,6.69382 2.42927,1.21666 5.28082,1.95587 8.42836,2.18489 1.03489,0.0753 3.1208,0.0615 3.97156,-0.0263 3.95429,-0.40801 7.5071,-2.02668 10.87509,-4.95473 0.7919,-0.68846 2.31015,-2.23012 2.91672,-2.9617 2.55351,-3.07975 4.02155,-6.5033 4.38411,-10.224 0.0633,-0.6494 0.12021,-1.848 0.0878,-1.848 -0.0144,0 -0.17661,0.2106 -0.36044,0.468 -0.18382,0.2574 -0.54353,0.7272 -0.79936,1.044 -2.76905,3.42902 -6.21421,5.83003 -10.29946,7.17791 -2.448,0.80768 -4.99736,1.21309 -8.04,1.27855 -7.25602,0.1561 -13.87597,-1.70936 -19.67834,-5.54524 -3.39659,-2.24545 -6.83282,-5.50532 -9.32168,-8.84328 -3.56778,-4.78496 -5.69443,-10.08511 -6.42147,-16.00394 -0.31534,-2.56717 -0.35164,-5.83199 -0.0939,-8.448 0.77989,-7.9169 4.04372,-14.79702 9.811,-20.68151 3.81717,-3.89474 8.07609,-6.7127 12.81587,-8.47974 2.92915,-1.09203 6.16055,-1.76772 9.67256,-2.02256 1.05106,-0.0763 4.13773,-0.076 5.16,4.8e-4 1.64287,0.12289 3.29734,0.34203 4.632,0.61353 0.459,0.0934 0.58353,0.10464 0.61305,0.0555 0.0204,-0.0339 0.19013,-0.3317 0.37724,-0.6617 0.71659,-1.26382 1.83721,-2.901143 2.85433,-4.170412 4.29174,-5.35572 10.73782,-9.872285 18.40626,-12.896683 2.70745,-1.067803 3.3978,-1.2432 4.89312,-1.2432 0.95497,0 1.28557,0.04103 2.14913,0.266745 2.91498,0.761909 5.19651,3.043445 5.95842,5.958423 0.22572,0.863558 0.26675,1.194158 0.26675,2.149128 0,0.926141 -0.0386,1.253501 -0.24639,2.087573 -0.42282,1.697534 -1.44717,3.30226 -2.81358,4.407691 -0.85731,0.693571 -1.50405,1.044595 -2.84233,1.542735 -3.96346,1.47527 -6.96627,3.09806 -9.528,5.14914 -1.20956,0.96844 -2.34349,2.09 -3.19846,3.16357 -0.36896,0.4633 -1.10394,1.52139 -1.23388,1.77631 l -0.077,0.15102 0.58665,0.52741 c 0.76807,0.6905 2.71624,2.67004 3.31714,3.37055 3.1036,3.61805 5.2134,7.28113 6.60744,11.472 1.05122,3.16023 1.59421,6.31562 1.72636,10.032 0.06,1.68686 0.0592,25.80924 -8.6e-4,27.45192 -0.0739,2.02142 -0.2512,3.60316 -0.60563,5.40408 -1.13217,5.75273 -3.71718,10.84781 -7.9878,15.744 -0.66069,0.75747 -2.83762,2.93916 -3.598,3.60586 -4.17664,3.66206 -8.18401,6.02677 -12.744,7.52008 -2.29158,0.75045 -4.44256,1.19035 -7.104,1.45285 -0.73334,0.0723 -4.2345,0.13133 -5.16,0.087 z m 3.86903,-39.9542 c 5.11957,-0.40081 9.52893,-2.53505 13.03968,-6.31154 3.1194,-3.35553 4.79403,-7.00698 5.29871,-11.55361 0.11477,-1.03401 0.11546,-3.43206 0.001,-4.44478 -0.28029,-2.48602 -0.91439,-4.70569 -1.91462,-6.70218 -1.89413,-3.78076 -5.41401,-7.301 -9.18208,-9.18306 -5.62811,-2.8111 -12.98034,-2.70088 -18.456,0.27668 -3.62393,1.97063 -6.77832,5.21823 -8.60831,8.86269 -2.44187,4.86303 -2.69223,11.29289 -0.64358,16.52826 1.92955,4.93099 6.19808,9.21884 11.12389,11.17425 1.91076,0.75851 3.79761,1.18089 6.12,1.36998 0.47283,0.0385 2.66094,0.0272 3.22103,-0.0167 z m 90.69636,19.7966 c -0.68433,-0.18405 -1.39411,-0.7753 -1.70006,-1.41619 -0.0935,-0.19577 -0.19611,-0.49148 -0.22811,-0.65714 -0.0797,-0.41269 -0.0357,-1.1129 0.0926,-1.47293 0.26168,-0.73418 0.8853,-1.35695 1.66213,-1.65985 0.24802,-0.0967 0.37462,-0.11255 0.912,-0.11413 0.73344,-0.002 0.994,0.0721 1.52582,0.43466 0.96478,0.65776 1.39706,1.70919 1.16166,2.82544 -0.19453,0.92241 -0.90905,1.70723 -1.84471,2.02621 -0.37843,0.12901 -1.16505,0.14589 -1.58138,0.0339 z M 38.208,172.45902 c -3.422475,-0.29859 -6.030723,-1.79974 -7.786359,-4.48138 -0.206815,-0.3159 -0.491852,-0.8019 -0.633416,-1.08 -0.141564,-0.2781 -1.165148,-2.62244 -2.274631,-5.20964 -1.109483,-2.5872 -6.303445,-14.694 -11.542138,-26.904 -5.238692,-12.21 -9.5708413,-22.32359 -9.6269965,-22.47465 -0.3263486,-0.87787 -0.4614638,-1.76763 -0.4275821,-2.81572 0.03023,-0.93515 0.170042,-1.57703 0.5269023,-2.419 0.9954705,-2.34871 2.8764633,-4.00163 5.1242203,-4.50289 1.407419,-0.31386 3.408494,-0.199 4.704,0.26999 1.520307,0.55038 2.749508,1.65709 3.584361,3.22718 0.136599,0.2569 1.688662,3.83669 3.449029,7.95509 3.443688,8.05655 9.493581,22.18655 12.1152,28.296 0.889286,2.0724 1.771072,4.1568 1.959527,4.632 0.328901,0.82934 1.898537,4.48367 2.045233,4.76157 l 0.07096,0.13443 0.04728,-0.12 c 0.225185,-0.57155 19.270366,-44.92489 19.449607,-45.2952 0.546667,-1.1294 1.539802,-2.31481 2.422805,-2.89188 1.271909,-0.83124 2.856355,-1.22298 4.608,-1.13929 1.505664,0.0719 2.738549,0.45837 3.801715,1.19161 1.551696,1.07018 2.843026,3.04612 3.213259,4.91681 0.06049,0.30563 0.08377,0.64967 0.08242,1.21795 -0.0021,0.8555 -0.08269,1.37538 -0.331843,2.13911 -0.09252,0.28359 -21.722707,50.91688 -23.11836,54.11689 -1.726752,3.95917 -4.69739,6.12264 -8.895187,6.47822 -0.663569,0.0562 -1.904743,0.0547 -2.568,-0.003 z m 47.850235,-0.0169 c -1.254811,-0.17956 -2.443094,-0.68797 -3.417187,-1.46205 -1.519022,-1.20711 -2.367739,-2.50135 -2.782272,-4.24278 l -0.105053,-0.44133 -0.01523,-28.512 c -0.01135,-21.24631 -0.0012,-28.6282 0.03987,-28.968 0.176957,-1.46421 0.827876,-2.83833 1.887207,-3.984 1.166256,-1.26131 2.550451,-2.03619 4.171109,-2.33503 0.545664,-0.10061 2.035142,-0.11447 2.603318,-0.0242 1.680456,0.26694 3.089251,1.05733 4.277563,2.39987 0.940032,1.06203 1.484679,2.12335 1.77733,3.46337 0.08626,0.39494 0.08911,1.32877 0.08911,29.184 v 28.776 l -0.129341,0.53987 c -0.344889,1.43958 -0.999086,2.5321 -2.200987,3.6757 -1.077586,1.02531 -2.244178,1.64001 -3.573672,1.88301 -0.590179,0.10787 -2.019192,0.1338 -2.621765,0.0476 z m 105.936005,0 c -1.25482,-0.17956 -2.4431,-0.68797 -3.41719,-1.46205 -1.51902,-1.20711 -2.36774,-2.50135 -2.78227,-4.24278 l -0.10506,-0.44133 -0.0152,-28.512 c -0.0113,-21.24631 -0.001,-28.6282 0.0399,-28.968 0.17695,-1.46421 0.82787,-2.83833 1.8872,-3.984 1.16626,-1.26131 2.55045,-2.03619 4.17111,-2.33503 0.54567,-0.10061 2.03514,-0.11447 2.60332,-0.0242 1.68046,0.26694 3.08925,1.05733 4.27756,2.39987 0.94004,1.06203 1.48468,2.12335 1.77733,3.46337 0.0863,0.39494 0.0891,1.32877 0.0891,29.184 v 28.776 l -0.12934,0.53987 c -0.34489,1.43958 -0.99909,2.5321 -2.20099,3.6757 -1.07758,1.02531 -2.24418,1.64001 -3.57367,1.88301 -0.59018,0.10787 -2.01919,0.1338 -2.62176,0.0476 z m 52.97376,0.0201 c -6.43747,-0.37961 -11.95508,-2.18593 -17.04,-5.57843 -2.01787,-1.34626 -3.67045,-2.71692 -5.59552,-4.64095 -1.5377,-1.53687 -2.32903,-2.43281 -3.43655,-3.89086 -3.86486,-5.08807 -6.06374,-10.69797 -6.70731,-17.112 -0.26412,-2.63228 -0.21795,-5.98904 0.1185,-8.616 0.79582,-6.21357 3.18331,-11.83972 7.10004,-16.73126 1.13538,-1.41798 2.92616,-3.32644 4.24347,-4.52235 l 0.42664,-0.38731 -0.13419,-0.23154 c -0.24878,-0.42927 -0.87854,-1.33211 -1.28313,-1.83954 -2.70304,-3.39006 -6.78451,-6.0796 -12.51595,-8.24754 -1.61426,-0.6106 -2.1678,-0.90475 -3.05833,-1.625196 -1.36641,-1.10543 -2.39076,-2.710157 -2.81358,-4.407691 -0.20775,-0.834072 -0.24639,-1.161432 -0.24639,-2.087573 0,-0.95497 0.041,-1.28557 0.26675,-2.149128 0.76191,-2.914978 3.04344,-5.196514 5.95842,-5.958422 0.86356,-0.225716 1.19416,-0.266746 2.14913,-0.266746 1.22318,0 1.90331,0.129907 3.26163,0.622992 8.94496,3.247118 16.10941,8.233925 20.75356,14.44549 0.85997,1.150214 1.98997,2.895264 2.40444,3.713194 0.0674,0.133 0.14217,0.25396 0.16616,0.26878 0.024,0.0148 0.35379,-0.0356 0.73291,-0.112 2.45752,-0.4954 4.57509,-0.69531 7.3613,-0.69495 3.25255,4.8e-4 5.88601,0.30699 8.784,1.02253 3.59151,0.88678 7.17436,2.47539 10.32,4.57579 2.38933,1.5954 4.72418,3.61122 6.85285,5.91647 3.67339,3.97812 6.31643,8.61849 7.7371,13.584 0.7974,2.78706 1.20107,5.40369 1.32179,8.568 0.0626,1.64091 0.0627,28.96792 0,29.72333 -0.10614,1.28079 -0.44866,2.28084 -1.13781,3.32199 -0.38141,0.57624 -1.41285,1.62877 -2.0164,2.05764 -0.79734,0.56657 -1.75331,0.98656 -2.71655,1.19348 -0.66721,0.14332 -2.32169,0.15685 -2.98505,0.0244 -1.5382,-0.30711 -2.69036,-0.93994 -3.91367,-2.14962 -1.30011,-1.28562 -1.9941,-2.79554 -2.09494,-4.55793 l -0.0302,-0.52775 -0.67659,0.66423 c -1.66584,1.63537 -3.32655,2.78816 -5.6206,3.90153 -3.11736,1.51296 -6.47159,2.3452 -10.824,2.68562 -0.87406,0.0684 -4.21832,0.098 -5.112,0.0453 z m 3.79703,-14.9267 c 2.9792,-0.23324 5.74705,-1.05506 8.15497,-2.42133 3.55541,-2.01737 6.70665,-5.39206 8.4252,-9.02263 0.94196,-1.98994 1.52904,-4.17975 1.78326,-6.65158 0.091,-0.88468 0.0768,-3.24882 -0.025,-4.176 -0.53272,-4.84949 -2.45904,-8.77033 -6.01385,-12.24061 -0.77904,-0.76052 -1.30723,-1.21876 -2.08158,-1.80594 -3.41075,-2.5863 -7.44731,-3.90521 -11.952,-3.90521 -5.456,0 -10.12954,1.88468 -14.02619,5.65631 -3.27407,3.16901 -5.28462,7.06735 -5.89444,11.42893 -0.29614,2.11803 -0.26848,4.53059 0.0762,6.64279 0.35844,2.19677 1.14557,4.44824 2.2178,6.34373 0.36514,0.64549 1.2737,1.98478 1.74757,2.57604 2.26169,2.82201 5.12266,4.97885 8.25933,6.22658 1.67392,0.66587 3.67279,1.14517 5.41176,1.29767 0.33,0.0289 0.6648,0.06 0.744,0.069 0.34432,0.0391 2.60879,0.0264 3.17303,-0.0177 z M 86.112,94.432445 c -0.458659,-0.05911 -1.376544,-0.270629 -1.756877,-0.404866 -2.582318,-0.911429 -4.745534,-3.247565 -5.39747,-5.828928 -0.209525,-0.829641 -0.261567,-1.298256 -0.25572,-2.302651 0.006,-1.03475 0.100363,-1.694813 0.357489,-2.501309 0.854487,-2.680181 3.24672,-4.949222 5.936674,-5.630947 0.782995,-0.198442 1.409275,-0.256757 2.459904,-0.229061 0.724963,0.01911 1.11036,0.05208 1.464,0.125227 1.310506,0.271066 2.480179,0.833261 3.576,1.718775 0.489682,0.395707 1.311394,1.247683 1.669901,1.731413 0.825528,1.113864 1.347643,2.451004 1.499769,3.840907 0.07304,0.667344 0.03752,1.972848 -0.07012,2.576995 -0.240715,1.35107 -0.826392,2.617882 -1.708747,3.696 -0.312446,0.381763 -1.093488,1.149562 -1.4868,1.461576 -1.028194,0.815678 -2.219813,1.37663 -3.482616,1.63944 -0.381667,0.07943 -0.693931,0.102326 -1.557384,0.114211 -0.594,0.0082 -1.1556,0.0051 -1.248,-0.0068 z m 2.444496,-5.300117 c 0.45745,-0.218035 0.547301,-0.284726 1.0446,-0.775378 0.48361,-0.477139 0.569386,-0.58775 0.771504,-0.994886 L 90.6,86.904 90.61496,86.028619 90.62992,85.153243 90.391303,84.660619 C 90.171398,84.206621 90.109738,84.12575 89.60484,83.629114 89.103235,83.135707 89.014752,83.070202 88.556496,82.853016 88.084694,82.629408 88.027104,82.614053 87.552,82.585171 c -0.820061,-0.04985 -1.239346,0.01664 -1.801637,0.285691 -0.425529,0.203616 -0.532363,0.282768 -0.967267,0.716664 -0.443914,0.442887 -0.512381,0.536064 -0.744,1.01257 L 83.784,85.124894 V 85.990445 86.856 l 0.252994,0.524251 c 0.230688,0.478027 0.296284,0.567437 0.744,1.01412 0.436867,0.435859 0.543931,0.515275 0.971006,0.720283 0.564346,0.270893 0.820608,0.312874 1.704,0.27914 l 0.6,-0.02291 z M 192.048,94.432445 c -0.45866,-0.05911 -1.37654,-0.270629 -1.75688,-0.404866 -2.58232,-0.911429 -4.74553,-3.247565 -5.39747,-5.828928 -0.20952,-0.829641 -0.26156,-1.298256 -0.25572,-2.302651 0.006,-1.03475 0.10037,-1.694813 0.35749,-2.501309 0.85449,-2.680181 3.24672,-4.949222 5.93668,-5.630947 0.78299,-0.198442 1.40927,-0.256757 2.4599,-0.229061 0.72496,0.01911 1.11036,0.05208 1.464,0.125227 1.31051,0.271066 2.48018,0.833261 3.576,1.718775 0.48968,0.395707 1.31139,1.247683 1.6699,1.731413 0.82553,1.113864 1.34764,2.451004 1.49977,3.840907 0.073,0.667344 0.0375,1.972848 -0.0701,2.576995 -0.24072,1.35107 -0.82639,2.617882 -1.70875,3.696 -0.31245,0.381763 -1.09349,1.149562 -1.4868,1.461576 -1.02819,0.815678 -2.21981,1.37663 -3.48262,1.63944 -0.38166,0.07943 -0.69393,0.102326 -1.55738,0.114211 -0.594,0.0082 -1.1556,0.0051 -1.248,-0.0068 z m 2.4445,-5.300117 c 0.45745,-0.218035 0.5473,-0.284726 1.0446,-0.775378 0.48361,-0.477139 0.56938,-0.58775 0.7715,-0.994886 l 0.2274,-0.458064 0.015,-0.875381 0.015,-0.875376 -0.23861,-0.492624 c -0.21991,-0.453998 -0.28157,-0.534869 -0.78647,-1.031505 -0.5016,-0.493407 -0.59009,-0.558912 -1.04834,-0.776098 -0.47181,-0.223608 -0.5294,-0.238963 -1.0045,-0.267845 -0.82006,-0.04985 -1.23935,0.01664 -1.80164,0.285691 -0.42553,0.203616 -0.53236,0.282768 -0.96726,0.716664 -0.44392,0.442887 -0.51238,0.536064 -0.744,1.01257 L 189.72,85.124894 V 85.990445 86.856 l 0.25299,0.524251 c 0.23069,0.478027 0.29629,0.567437 0.744,1.01412 0.43687,0.435859 0.54393,0.515275 0.97101,0.720283 0.56435,0.270893 0.82061,0.312874 1.704,0.27914 l 0.6,-0.02291 z"
       id="path177" />
  </g>
</svg>
